<svg width="184" height="184" viewBox="0 0 184 184" fill="none" xmlns="http://www.w3.org/2000/svg">
<path fill-rule="evenodd" clip-rule="evenodd" d="M86.6082 14.9437L86.6083 14.9437C89.409 12.143 94.0765 12.143 96.8772 14.9437L109.892 27.9583C111.775 29.8416 114.222 31.2561 116.49 32.1963C118.754 33.135 121.472 33.8631 124.108 33.8631H142.516C146.504 33.8631 149.794 37.153 149.794 41.1417V59.5494C149.794 62.1854 150.522 64.9037 151.461 67.1677C152.401 69.4352 153.816 71.8821 155.699 73.7654L168.713 86.78C171.514 89.5807 171.514 94.2482 168.713 97.049L155.699 110.064C153.816 111.947 152.401 114.394 151.461 116.661C150.522 118.925 149.794 121.644 149.794 124.28V142.688C149.794 146.676 146.504 149.966 142.516 149.966C138.97 149.966 136.095 152.841 136.095 156.387C136.095 159.934 138.97 162.809 142.516 162.809C153.597 162.809 162.637 153.769 162.637 142.688V124.28C162.637 123.833 162.808 122.827 163.325 121.58C163.84 120.337 164.438 119.488 164.78 119.145L177.795 106.13C185.611 98.3142 185.611 85.5148 177.795 77.6985L164.78 64.6839C164.438 64.3411 163.84 63.4915 163.325 62.2486C162.808 61.0021 162.637 59.9958 162.637 59.5494V41.1417C162.637 30.0612 153.598 21.0199 142.516 21.0199H124.108C123.661 21.0199 122.655 20.8491 121.408 20.3324C120.166 19.8171 119.316 19.2196 118.973 18.8768L105.959 5.86222C98.1424 -1.95407 85.3431 -1.95407 77.5268 5.86222L77.5267 5.86227L64.5124 18.8769C62.0046 21.3847 62.0047 25.4506 64.5125 27.9583C67.0203 30.4661 71.0862 30.4661 73.594 27.9583L86.6082 14.9437ZM41.1409 34.0341C37.1528 34.0341 33.8633 37.3236 33.8633 41.3117V59.7205C33.8633 62.3564 33.1351 65.0747 32.1963 67.3387C31.2562 69.6063 29.8416 72.0532 27.9583 73.9365L14.9437 86.9511C12.143 89.7518 12.143 94.4193 14.9437 97.22L27.9583 110.235C29.8416 112.118 31.2562 114.565 32.1963 116.832C33.1351 119.096 33.8633 121.815 33.8633 124.451V142.858C33.8633 146.847 37.1535 150.137 41.1409 150.137H59.5497C62.1855 150.137 64.9037 150.865 67.1677 151.804C69.4352 152.744 71.8821 154.158 73.7654 156.042L86.78 169.056C89.5807 171.857 94.2482 171.857 97.0489 169.056L110.063 156.042C112.571 153.534 116.637 153.534 119.145 156.042C121.653 158.549 121.653 162.615 119.145 165.123L106.13 178.138L101.59 173.597L106.13 178.138C98.3142 185.954 85.5148 185.954 77.6985 178.138L64.6839 165.123C64.3411 164.78 63.4916 164.183 62.2488 163.668C61.0025 163.151 59.9962 162.98 59.5497 162.98H41.1409C30.0591 162.98 21.0202 153.939 21.0202 142.858V124.451C21.0202 124.004 20.8494 122.998 20.3326 121.751C19.8172 120.508 19.2197 119.659 18.8768 119.316L5.86222 106.302C-1.95407 98.4852 -1.95407 85.6858 5.86222 77.8696L18.8768 64.855C19.2197 64.5121 19.8172 63.6626 20.3326 62.4196C20.8494 61.1732 21.0202 60.1669 21.0202 59.7205V41.3117C21.0202 30.2305 30.0597 21.191 41.1409 21.191C44.6875 21.191 47.5625 24.066 47.5625 27.6126C47.5625 31.1591 44.6875 34.0341 41.1409 34.0341ZM110.398 63.5046C111.749 56.6383 107.389 49.7012 101.002 47.5048C97.7349 46.3075 94.399 46.6388 91.7615 47.553C89.1271 48.4661 86.4604 50.21 84.7193 52.7758L75.703 66.1591C72.5954 63.3984 68.6053 62.8885 65.3728 62.8885H61.3486C58.0633 62.8885 53.9898 63.3997 50.8625 66.2707C47.5982 69.2676 46.8786 73.4 46.8786 76.9305V116.145C46.8786 119.675 47.5982 123.808 50.8625 126.804C53.9898 129.675 58.0633 130.187 61.3486 130.187H65.3728C68.7134 130.187 72.7705 129.633 75.8799 126.753C76.0501 126.595 76.2133 126.435 76.3699 126.271L82.0054 130.624C83.9063 132.351 86.2573 133.243 87.9555 133.723C89.9168 134.277 92.0023 134.554 93.8004 134.554H108.955C112.889 134.554 116.693 133.112 119.695 130.924C122.64 128.776 125.256 125.578 126.336 121.551L135.843 92.5204C137.427 87.9694 136.884 83.1339 134.119 79.3563C131.359 75.5842 126.919 73.5914 122.141 73.5914H108.852L110.398 63.5046ZM79.8428 112.725L90.4304 120.903L90.5656 121.039L90.5867 121.049C90.7558 121.134 91.0424 121.249 91.4469 121.364C92.2898 121.602 93.201 121.71 93.8004 121.71H108.955C109.816 121.71 111.021 121.354 112.129 120.546C113.232 119.741 113.78 118.833 113.942 118.184L113.997 117.961L123.682 88.388L123.707 88.3165C123.894 87.7896 123.893 87.4441 123.871 87.2691C123.85 87.0969 123.799 87.0019 123.755 86.9413C123.712 86.882 123.357 86.4346 122.141 86.4346H106.13C99.8803 86.4346 94.9245 81.0974 95.7307 74.4461L95.7429 74.3456L97.756 61.2153L97.7957 61.0301C97.7976 61.0018 97.8143 60.7416 97.5781 60.3436C97.3227 59.913 96.9945 59.7062 96.8213 59.6484L96.6995 59.6078L96.618 59.577C96.6019 59.5753 96.5724 59.5734 96.5281 59.5745C96.398 59.5778 96.2012 59.6069 95.9676 59.6879C95.7334 59.7691 95.535 59.8773 95.3982 59.9756C95.3525 60.0084 95.3223 60.0338 95.3049 60.0494L79.8428 83.0005V112.725ZM59.7218 76.9305C59.7218 76.4472 59.7478 76.0868 59.78 75.827C60.1267 75.7749 60.6339 75.7317 61.3486 75.7317H65.3728C66.0917 75.7317 66.5973 75.7772 66.9387 75.8311C66.972 76.0862 66.9997 76.4448 66.9997 76.9305V116.145C66.9997 116.63 66.9723 116.988 66.9391 117.243C66.5991 117.297 66.0934 117.343 65.3728 117.343H61.3486C60.6339 117.343 60.1267 117.3 59.78 117.248C59.7478 116.988 59.7218 116.628 59.7218 116.145V76.9305Z" fill="white" fill-opacity="0.1"/>
</svg>
