<svg width="70" height="70" viewBox="0 0 70 70" fill="none" xmlns="http://www.w3.org/2000/svg">
<path d="M13.0376 33.3083L7.96259 28.2333L2.91675 33.3083" stroke="#70B39C" stroke-width="3" stroke-linecap="round" stroke-linejoin="round"/>
<path d="M56.9624 36.6917L62.0374 41.7667L67.1124 36.6917" stroke="#70B39C" stroke-width="3" stroke-linecap="round" stroke-linejoin="round"/>
<path d="M35.0001 7.99156C26.4834 7.99156 18.8709 11.9583 13.9126 18.1125" stroke="#70B39C" stroke-width="3" stroke-linecap="round" stroke-linejoin="round"/>
<path d="M62.0084 41.7667V35.0001C62.0084 24.2667 55.7376 14.9918 46.6667 10.6168" stroke="#70B39C" stroke-width="3" stroke-linecap="round" stroke-linejoin="round"/>
<path d="M35 62.0083C43.5167 62.0083 51.1292 58.0416 56.0875 51.8874" stroke="#70B39C" stroke-width="3" stroke-linecap="round" stroke-linejoin="round"/>
<path d="M7.99146 28.2333V35C7.99146 45.6458 14.1456 54.8625 23.129 59.2667" stroke="#70B39C" stroke-width="3" stroke-linecap="round" stroke-linejoin="round"/>
<path d="M26.5515 41.1184C26.5515 44.4836 29.1738 47.237 32.3642 47.237H38.9198C41.7168 47.237 43.9895 44.8333 43.9895 41.9051C43.9895 38.7147 42.5909 37.5784 40.5368 36.8354L30.0478 33.1643C27.95 32.4213 26.5515 31.285 26.5515 28.0946C26.5515 25.1664 28.8241 22.7627 31.6212 22.7627H38.1768C41.4109 22.8064 44.0332 25.5161 44.0332 28.8813" stroke="#70B39C" stroke-width="3" stroke-linecap="round" stroke-linejoin="round"/>
<path d="M35.2925 47.4556V50.6897" stroke="#70B39C" stroke-width="3" stroke-linecap="round" stroke-linejoin="round"/>
<path d="M35.2925 19.3103V22.7193" stroke="#70B39C" stroke-width="3" stroke-linecap="round" stroke-linejoin="round"/>
</svg>
