<svg width="70" height="70" viewBox="0 0 70 70" fill="none" xmlns="http://www.w3.org/2000/svg">
<path d="M35.4373 48.125V54.25" stroke="#5A599C" stroke-width="3" stroke-linecap="round" stroke-linejoin="round"/>
<path d="M20.854 64.1667H50.0207V61.25C50.0207 58.0417 47.3957 55.4167 44.1873 55.4167H26.6873C23.479 55.4167 20.854 58.0417 20.854 61.25V64.1667V64.1667Z" stroke="#5A599C" stroke-width="3" stroke-miterlimit="10"/>
<path d="M17.9373 64.1667H52.9373" stroke="#5A599C" stroke-width="3" stroke-linecap="round" stroke-linejoin="round"/>
<path d="M24.8208 43.9542C18.6958 40.425 14.5833 33.8333 14.5833 26.25V17.5C14.5833 11.0542 19.8041 5.83333 26.2499 5.83333H43.7499C50.1958 5.83333 55.4166 11.0542 55.4166 17.5V26.25C55.4166 37.3917 46.5207 46.4333 35.4374 46.6667C35.2916 46.6667 34.9999 46.6667 34.9999 46.6667" stroke="#5A599C" stroke-width="3" stroke-linecap="round" stroke-linejoin="round"/>
<path d="M15.9544 33.9791C13.7669 33.2791 11.8419 31.9958 10.3252 30.4791C7.7002 27.5624 5.9502 24.0624 5.9502 19.9791C5.9502 15.8958 9.15853 12.6874 13.2419 12.6874H15.1377C14.5544 14.0291 14.2627 15.5166 14.2627 17.0624V25.8124C14.2627 28.7291 14.8752 31.4708 15.9544 33.9791Z" stroke="#5A599C" stroke-width="3" stroke-linecap="round" stroke-linejoin="round"/>
<path d="M54.0459 33.9791C56.2334 33.2791 58.1584 31.9958 59.6751 30.4791C62.3001 27.5624 64.0501 24.0624 64.0501 19.9791C64.0501 15.8958 60.8417 12.6874 56.7584 12.6874H54.8626C55.4459 14.0291 55.7376 15.5166 55.7376 17.0624V25.8124C55.7376 28.7291 55.1251 31.4708 54.0459 33.9791Z" stroke="#5A599C" stroke-width="3" stroke-linecap="round" stroke-linejoin="round"/>
<path d="M35.7258 34.9179C35.337 35.0274 34.6888 35.0274 34.274 34.9179C30.9036 33.9333 23.3333 29.8851 23.3333 22.9923C23.3333 19.9508 26.237 17.5 29.8147 17.5C31.9407 17.5 33.8073 18.3534 34.9999 19.6882C36.1925 18.3534 38.0592 17.5 40.1851 17.5C43.7629 17.5 46.6666 19.9508 46.6666 22.9923C46.6666 25.5306 45.6554 27.6751 44.2036 29.4256" stroke="#5A599C" stroke-width="3" stroke-linecap="round" stroke-linejoin="round"/>
</svg>
