<svg width="25" height="25" viewBox="0 0 25 25" fill="none" xmlns="http://www.w3.org/2000/svg">
<path d="M21.8333 0.5C22.5406 0.5 23.2189 0.780951 23.719 1.28105C24.219 1.78115 24.5 2.45942 24.5 3.16667V21.8333C24.5 22.5406 24.219 23.2189 23.719 23.719C23.2189 24.219 22.5406 24.5 21.8333 24.5H3.16667C2.45942 24.5 1.78115 24.219 1.28105 23.719C0.780951 23.2189 0.5 22.5406 0.5 21.8333V3.16667C0.5 2.45942 0.780951 1.78115 1.28105 1.28105C1.78115 0.780951 2.45942 0.5 3.16667 0.5H21.8333ZM21.1667 21.1667V14.1C21.1667 12.9472 20.7087 11.8416 19.8936 11.0264C19.0784 10.2113 17.9728 9.75333 16.82 9.75333C15.6867 9.75333 14.3667 10.4467 13.7267 11.4867V10.0067H10.0067V21.1667H13.7267V14.5933C13.7267 13.5667 14.5533 12.7267 15.58 12.7267C16.0751 12.7267 16.5499 12.9233 16.8999 13.2734C17.25 13.6235 17.4467 14.0983 17.4467 14.5933V21.1667H21.1667ZM5.67333 7.91333C6.26742 7.91333 6.83717 7.67733 7.25725 7.25725C7.67733 6.83717 7.91333 6.26742 7.91333 5.67333C7.91333 4.43333 6.91333 3.42 5.67333 3.42C5.07571 3.42 4.50257 3.6574 4.07999 4.07999C3.6574 4.50257 3.42 5.07571 3.42 5.67333C3.42 6.91333 4.43333 7.91333 5.67333 7.91333ZM7.52667 21.1667V10.0067H3.83333V21.1667H7.52667Z" fill="#D8CDBA"/>
</svg>
