<svg width="21" height="21" viewBox="0 0 21 21" fill="none" xmlns="http://www.w3.org/2000/svg">
<path fill-rule="evenodd" clip-rule="evenodd" d="M20.6339 2.13388C21.122 1.64573 21.122 0.854272 20.6339 0.366117C20.1457 -0.122039 19.3543 -0.122039 18.8661 0.366117L10.75 8.48223L2.63388 0.366117C2.14573 -0.122039 1.35427 -0.122039 0.866117 0.366117C0.377961 0.854272 0.377961 1.64573 0.866117 2.13388L8.98223 10.25L0.866117 18.3661C0.377961 18.8543 0.377961 19.6457 0.866117 20.1339C1.35427 20.622 2.14573 20.622 2.63388 20.1339L10.75 12.0178L18.8661 20.1339C19.3543 20.622 20.1457 20.622 20.6339 20.1339C21.122 19.6457 21.122 18.8543 20.6339 18.3661L12.5178 10.25L20.6339 2.13388Z" fill="#212121"/>
</svg>
