<svg width="70" height="70" viewBox="0 0 70 70" fill="none" xmlns="http://www.w3.org/2000/svg">
<path d="M25.2874 40.8334H11.6666C8.45825 40.8334 5.83325 43.4584 5.83325 46.6667V64.1667H25.2874V40.8334Z" stroke="#70B39C" stroke-width="3" stroke-miterlimit="10" stroke-linecap="round" stroke-linejoin="round"/>
<path d="M44.7125 35C44.7125 31.7916 42.0875 29.1666 38.8791 29.1666H31.0916C27.8833 29.1666 25.2583 31.7916 25.2583 35V64.1666H44.7125V46.6666" stroke="#70B39C" stroke-width="3" stroke-miterlimit="10" stroke-linecap="round" stroke-linejoin="round"/>
<path d="M58.3335 49.5834H44.7126V64.1667H64.1668V55.4167C64.1668 52.2084 61.5418 49.5834 58.3335 49.5834Z" stroke="#70B39C" stroke-width="3" stroke-miterlimit="10" stroke-linecap="round" stroke-linejoin="round"/>
<path d="M36.5168 6.03756L38.0627 9.12922C38.2668 9.56672 38.821 9.97505 39.2877 10.0334L42.0877 10.5001C43.8668 10.7917 44.3043 12.1042 43.021 13.3583L40.8335 15.5458C40.4543 15.925 40.2502 16.625 40.3668 17.1209L40.9793 19.8042C41.4752 21.9334 40.3377 22.7501 38.471 21.6417L35.846 20.0959C35.3794 19.8043 34.5918 19.8043 34.1252 20.0959L31.5002 21.6417C29.6335 22.7501 28.496 21.9334 28.9918 19.8042L29.6044 17.1209C29.721 16.625 29.5169 15.8958 29.1377 15.5458L26.9793 13.3875C25.696 12.1042 26.1043 10.8208 27.9127 10.5292L30.7127 10.0626C31.1793 9.97508 31.7335 9.56675 31.9377 9.15842L33.4835 6.06667C34.3293 4.375 35.671 4.37506 36.5168 6.03756Z" stroke="#70B39C" stroke-width="3" stroke-linecap="round" stroke-linejoin="round"/>
</svg>
