<svg width="184" height="184" viewBox="0 0 184 184" fill="none" xmlns="http://www.w3.org/2000/svg">
<path fill-rule="evenodd" clip-rule="evenodd" d="M66.3256 0C44.2972 0 27.2075 4.36637 15.7869 15.7869C4.36637 27.2075 0 44.2972 0 66.3256C0 69.8705 2.87371 72.7442 6.41861 72.7442C9.9635 72.7442 12.8372 69.8705 12.8372 66.3256C12.8372 45.5633 17.029 32.6995 24.8642 24.8642C32.6995 17.029 45.5633 12.8372 66.3256 12.8372H117.674C138.437 12.8372 151.301 17.029 159.136 24.8642C166.971 32.6995 171.163 45.5633 171.163 66.3256V117.674C171.163 138.437 166.971 151.301 159.136 159.136C151.301 166.971 138.437 171.163 117.674 171.163H66.3256C45.5633 171.163 32.6995 166.971 24.8642 159.136C17.029 151.301 12.8372 138.437 12.8372 117.674V100.13C12.8372 96.5853 9.9635 93.7116 6.41861 93.7116C2.87371 93.7116 0 96.5853 0 100.13V117.674C0 139.703 4.36637 156.792 15.7869 168.213C27.2075 179.634 44.2972 184 66.3256 184H117.674C139.703 184 156.792 179.634 168.213 168.213C179.634 156.792 184 139.703 184 117.674V66.3256C184 44.2972 179.634 27.2075 168.213 15.7869C156.792 4.36637 139.703 0 117.674 0H66.3256ZM74.1151 47.9218C76.6217 50.4285 76.6217 54.4925 74.1151 56.9991L54.8592 76.2549C52.3526 78.7616 48.2886 78.7616 45.782 76.2549L39.3634 69.8363C36.8567 67.3297 36.8567 63.2657 39.3634 60.7591C41.87 58.2524 45.934 58.2524 48.4406 60.7591L50.3206 62.639L65.0378 47.9218C67.5444 45.4152 71.6084 45.4152 74.1151 47.9218ZM88.7488 65.2977C88.7488 61.7528 91.6225 58.8791 95.1674 58.8791H140.098C143.643 58.8791 146.516 61.7528 146.516 65.2977C146.516 68.8426 143.643 71.7163 140.098 71.7163H95.1674C91.6225 71.7163 88.7488 68.8426 88.7488 65.2977ZM95.1674 118.786C91.6225 118.786 88.7488 121.66 88.7488 125.205C88.7488 128.75 91.6225 131.623 95.1674 131.623H140.098C143.643 131.623 146.516 128.75 146.516 125.205C146.516 121.66 143.643 118.786 140.098 118.786H95.1674ZM74.1151 107.829C76.6217 110.336 76.6217 114.4 74.1151 116.906L54.8592 136.162C52.3526 138.669 48.2886 138.669 45.782 136.162L39.3634 129.743C36.8567 127.237 36.8567 123.173 39.3634 120.666C41.87 118.16 45.934 118.159 48.4406 120.666L50.3206 122.546L65.0378 107.829C67.5444 105.322 71.6084 105.322 74.1151 107.829Z" fill="white" fill-opacity="0.13"/>
</svg>
