<svg width="169" height="184" viewBox="0 0 169 184" fill="none" xmlns="http://www.w3.org/2000/svg">
<path fill-rule="evenodd" clip-rule="evenodd" d="M94.4521 15.5793C88.0304 11.9151 80.2009 11.9337 73.8993 15.5717C70.8293 17.3441 66.9038 16.2922 65.1314 13.2222C63.359 10.1522 64.4109 6.22664 67.481 4.45427C77.7783 -1.49059 90.4827 -1.4742 100.833 4.44011L100.858 4.4545L100.858 4.45456L151.693 33.8086L151.693 33.8089C161.992 39.7546 168.338 50.7809 168.338 62.7314V121.269C168.338 133.154 161.977 144.148 151.735 150.167L151.693 150.191L151.693 150.191L100.858 179.545L100.857 179.546C90.56 185.491 77.8557 185.474 67.5056 179.56L67.4805 179.545L16.6457 150.191C6.34688 144.246 0 133.219 0 121.269V62.7314C0 50.846 6.36111 39.8519 16.603 33.8334L16.6389 33.8123L16.639 33.8125L32.8994 24.3987C35.9673 22.6226 39.8941 23.6698 41.6701 26.7377C43.4462 29.8056 42.399 33.7323 39.3312 35.5084L23.0904 44.9108C16.7391 48.6507 12.8372 55.4528 12.8372 62.7314V121.269C12.8372 128.659 16.7601 135.435 23.064 139.074L23.0645 139.074L73.8746 168.414L73.8869 168.421C80.3083 172.085 88.1372 172.066 94.4385 168.429L94.4391 168.428L145.232 139.099L145.252 139.087C151.601 135.347 155.501 128.546 155.501 121.269V62.7314C155.501 55.3406 151.578 48.5655 145.274 44.9261L145.274 44.9258L94.4637 15.5859L94.4521 15.5793ZM84.1264 49.9803C76.6583 49.9803 70.6045 56.034 70.6045 63.5018C70.6045 70.9697 76.6585 77.0238 84.1264 77.0238C91.5942 77.0238 97.6482 70.9697 97.6482 63.5018C97.6482 56.034 91.5944 49.9803 84.1264 49.9803ZM57.7674 63.5018C57.7674 48.9439 69.5688 37.1431 84.1264 37.1431C98.6839 37.1431 110.485 48.9439 110.485 63.5018C110.485 78.0594 98.6841 89.8609 84.1264 89.8609C69.5686 89.8609 57.7674 78.0594 57.7674 63.5018ZM84.1271 97.564C62.9569 97.564 43.4759 111.768 43.4759 131.882C43.4759 135.426 46.3497 138.3 49.8945 138.3C53.4394 138.3 56.3131 135.426 56.3131 131.882C56.3131 121.186 67.4703 110.401 84.1271 110.401C100.784 110.401 111.941 121.186 111.941 131.882C111.941 135.426 114.815 138.3 118.36 138.3C121.904 138.3 124.778 135.426 124.778 131.882C124.778 111.768 105.297 97.564 84.1271 97.564Z" fill="white" fill-opacity="0.2"/>
</svg>
