<svg width="10" height="18" viewBox="0 0 10 18" fill="none" xmlns="http://www.w3.org/2000/svg">
<path d="M1.34491 17.3375C1.15491 17.3375 0.964912 17.2675 0.814912 17.1175C0.524912 16.8275 0.524912 16.3475 0.814912 16.0575L7.33491 9.5375C7.81491 9.0575 7.81491 8.2775 7.33491 7.7975L0.814912 1.2775C0.524912 0.9875 0.524912 0.5075 0.814912 0.2175C1.10491 -0.0725 1.58491 -0.0725 1.87491 0.2175L8.39491 6.7375C8.90491 7.2475 9.19491 7.9375 9.19491 8.6675C9.19491 9.3975 8.91491 10.0875 8.39491 10.5975L1.87491 17.1175C1.72491 17.2575 1.53491 17.3375 1.34491 17.3375Z" fill="#212121"/>
</svg>
