<svg width="70" height="70" viewBox="0 0 70 70" fill="none" xmlns="http://www.w3.org/2000/svg">
<g opacity="0.7">
<path d="M52.5584 55.3C57.575 51.9166 57.575 51.9166 57.575 46.6083V32.1125C57.575 26.8041 57.575 26.8041 52.5584 23.4208L38.7625 15.4583C36.6917 14.2625 33.3084 14.2625 31.2375 15.4583L17.4417 23.45C12.425 26.8333 12.425 26.8333 12.425 32.1416V46.6375C12.425 51.9458 12.425 51.9458 17.4417 55.3291L31.2375 63.2916C33.3084 64.4875 36.6917 64.4875 38.7625 63.2916L43.1959 60.725" stroke="#454797" stroke-width="3" stroke-linecap="round" stroke-linejoin="round"/>
<path d="M51.0416 22.2542V14.5833C51.0416 8.75001 48.1249 5.83334 42.2916 5.83334H27.7083C21.8749 5.83334 18.9583 8.75001 18.9583 14.5833V22.05" stroke="#454797" stroke-width="3" stroke-linecap="round" stroke-linejoin="round"/>
<path d="M35.8167 47.8917C35.3792 47.7167 34.6501 47.7167 34.2126 47.8917L31.3542 49.0292C29.6042 49.7292 28.2626 48.7375 28.3792 46.8709L28.5542 43.8084C28.5834 43.3417 28.3501 42.6417 28.0584 42.2917L26.1042 39.9292C24.9084 38.4709 25.4042 36.8959 27.2417 36.4292L30.2167 35.6709C30.6834 35.5542 31.2667 35.1167 31.5001 34.7375L33.1626 32.1417C34.1834 30.5375 35.8459 30.5375 36.8667 32.1417L38.5292 34.7375C38.7917 35.1459 39.3751 35.5542 39.8126 35.6709L42.7876 36.4292C44.6251 36.8959 45.1209 38.4709 43.9251 39.9292L41.9709 42.2917C41.6792 42.6709 41.4459 43.3417 41.4751 43.8084" stroke="#454797" stroke-width="3" stroke-linecap="round" stroke-linejoin="round"/>
</g>
</svg>
