<svg width="150" height="184" viewBox="0 0 150 184" fill="none" xmlns="http://www.w3.org/2000/svg">
<path fill-rule="evenodd" clip-rule="evenodd" d="M47.1432 25.6744C47.1432 18.6072 52.9222 12.8372 60.0003 12.8372H90.0003C93.539 12.8372 96.7239 14.2497 99.0835 16.6056C101.431 18.9491 102.843 22.1077 102.857 25.6186L102.857 25.6744C102.857 32.2998 97.7781 37.7851 91.3112 38.4451C90.88 38.4891 90.4427 38.5116 90.0003 38.5116H90H60.0003L59.9589 38.5116C59.7517 38.5109 59.5458 38.5054 59.3411 38.4952C56.0668 38.3314 53.1294 36.9519 50.9172 34.7432C48.5577 32.3873 47.1432 29.2077 47.1432 25.6744ZM35.0495 19.4523C37.8422 8.29178 47.9697 0 60.0003 0H90.0003C97.0903 0 103.506 2.86663 108.175 7.52837C111.429 10.7771 113.809 14.8725 114.953 19.4524C123.097 20.0476 131.17 22.1233 137.609 27.3981C145.81 34.1154 150 44.8489 150 59.907V75.4829C150 79.0278 147.122 81.9015 143.571 81.9015C140.021 81.9015 137.143 79.0278 137.143 75.4829V59.907C137.143 47.1511 133.661 40.7683 129.455 37.3228C125.96 34.4599 121.086 32.8772 114.841 32.3226C112.266 41.9046 104.264 49.2918 94.3409 50.983C92.9295 51.2235 91.4793 51.3488 90.0003 51.3488H90H60.0003L35.0495 19.4523ZM35.0495 19.4523L60 51.3488C59.557 51.3488 59.1166 51.3376 58.6792 51.3155C52.1152 50.9836 46.2028 48.1909 41.8255 43.8205C38.6731 40.6729 36.3405 36.7306 35.1577 32.3228C28.9127 32.8775 24.0401 34.4601 20.5452 37.3228C16.3388 40.7683 12.8571 47.1511 12.8571 59.907V143.349C12.8571 154.872 16.2504 161.425 20.6695 165.235C25.2648 169.197 32.0817 171.163 40.7143 171.163H109.286C117.918 171.163 124.735 169.197 129.331 165.235C133.75 161.425 137.143 154.872 137.143 143.349V118.017C137.143 114.472 140.021 111.598 143.571 111.598C147.122 111.598 150 114.472 150 118.017V143.349C150 157.5 145.722 168.064 137.734 174.951C129.922 181.686 119.596 184 109.286 184H40.7143C30.404 184 20.078 181.686 12.2662 174.951C4.27816 168.064 0 157.5 0 143.349V59.907C0 44.8489 4.18974 34.1154 12.3905 27.3981C18.8308 22.1228 26.905 20.0472 35.0495 19.4523ZM40.7146 94.1397H75.0004C78.5508 94.1397 81.4289 97.0134 81.4289 100.558C81.4289 104.103 78.5508 106.977 75.0004 106.977H40.7146C37.1642 106.977 34.2861 104.103 34.2861 100.558C34.2861 97.0134 37.1642 94.1397 40.7146 94.1397ZM115.715 134.791C115.715 131.246 112.836 128.372 109.286 128.372H40.7146C37.1642 128.372 34.2861 131.246 34.2861 134.791C34.2861 138.336 37.1642 141.209 40.7146 141.209H109.286C112.836 141.209 115.715 138.336 115.715 134.791Z" fill="white" fill-opacity="0.1"/>
</svg>
