<svg width="70" height="70" viewBox="0 0 70 70" fill="none" xmlns="http://www.w3.org/2000/svg">
<path d="M5.83325 32.0834C5.83325 26.25 8.74992 23.3334 14.5833 23.3334H29.1666V55.4167C29.1666 61.25 32.0833 64.1667 37.9166 64.1667H14.5833C8.74992 64.1667 5.83325 61.25 5.83325 55.4167V43.75" stroke="#D57315" stroke-width="3" stroke-miterlimit="10" stroke-linecap="round" stroke-linejoin="round"/>
<path d="M29.4874 11.6667C29.254 12.5417 29.1666 13.5042 29.1666 14.5834V23.3334H14.5833V17.5001C14.5833 14.2917 17.2083 11.6667 20.4166 11.6667H29.4874Z" stroke="#D57315" stroke-width="3" stroke-miterlimit="10" stroke-linecap="round" stroke-linejoin="round"/>
<path d="M40.8333 23.3334V37.9167" stroke="#D57315" stroke-width="3" stroke-miterlimit="10" stroke-linecap="round" stroke-linejoin="round"/>
<path d="M52.5 23.3334V37.9167" stroke="#D57315" stroke-width="3" stroke-miterlimit="10" stroke-linecap="round" stroke-linejoin="round"/>
<path d="M49.5833 49.5834H43.7499C42.1458 49.5834 40.8333 50.8959 40.8333 52.5V64.1667H52.4999V52.5C52.4999 50.8959 51.1874 49.5834 49.5833 49.5834Z" stroke="#D57315" stroke-width="3" stroke-miterlimit="10" stroke-linecap="round" stroke-linejoin="round"/>
<path d="M17.5 37.9167V49.5834" stroke="#D57315" stroke-width="3" stroke-miterlimit="10" stroke-linecap="round" stroke-linejoin="round"/>
<path d="M29.1665 55.4167V14.5834C29.1665 8.75004 32.0832 5.83337 37.9165 5.83337H55.4165C61.2498 5.83337 64.1665 8.75004 64.1665 14.5834V55.4167C64.1665 61.25 61.2498 64.1667 55.4165 64.1667H37.9165C32.0832 64.1667 29.1665 61.25 29.1665 55.4167Z" stroke="#D57315" stroke-width="3" stroke-miterlimit="10" stroke-linecap="round" stroke-linejoin="round"/>
</svg>
