<svg width="93" height="93" viewBox="0 0 93 93" fill="none" xmlns="http://www.w3.org/2000/svg">
<rect x="15.5" y="17.05" width="65.1" height="63.55" rx="20.5" fill="white"/>
<path d="M47.3117 67.7201L47.2819 67.2924C49.2952 67.1522 51.2913 66.8264 53.2447 66.3191L53.3813 66.2836L53.5163 66.3248C55.8904 67.0493 58.4001 67.2134 60.8482 66.8043C60.9754 66.7825 61.1042 66.7714 61.2332 66.771H61.2347C62.1329 66.771 63.1968 67.2009 64.5419 67.9986V67.0821V67.0805C64.5431 66.6781 64.6509 66.2831 64.8543 65.9359C65.0577 65.5886 65.3494 65.3014 65.6998 65.1035M47.3117 67.7201L67.7068 63.7067L68.0295 64.0886L67.7063 63.7071C67.0825 64.2341 66.4107 64.7016 65.6998 65.1035M47.3117 67.7201L46.9598 68.1415L46.9627 68.1444L47.1239 68.3058L47.1791 68.302M47.3117 67.7201L47.1791 68.302M65.6998 65.1035L65.9457 65.5388L65.6997 65.1036C65.6997 65.1036 65.6998 65.1035 65.6998 65.1035ZM47.1791 68.302C50.2284 70.3654 54.0599 71.584 58.1948 71.584C59.1915 71.584 60.1777 71.5135 61.148 71.3752C61.4177 71.4934 61.6935 71.6392 62.0355 71.836C62.8864 72.3353 64.0358 73.1085 65.4796 74.1617C66.9904 75.2656 69.1456 74.2059 69.1456 72.3249V68.3483C69.6896 67.984 70.2067 67.5936 70.6987 67.1753L47.1791 68.302ZM39.9973 60.7318C39.1582 60.7321 38.1802 61.0256 37.0326 61.5676C36.0665 62.0239 34.9508 62.6708 33.6574 63.5107L33.6574 60.264L33.6574 60.2622C33.6557 59.7806 33.5262 59.3081 33.2823 58.8929C33.0384 58.4776 32.6888 58.1345 32.2691 57.8984L32.024 58.3343M39.9973 60.7318C40.151 60.7309 40.3045 60.7427 40.4562 60.7672L40.4595 60.7678C41.9171 61.0131 43.4093 61.1387 44.9219 61.1387C57.4966 61.1387 67.4016 52.6255 67.4016 42.4894C67.4016 32.3533 57.4967 23.843 44.9219 23.843C32.3499 23.843 22.4422 32.3534 22.4422 42.4894C22.4422 47.3992 24.7465 52.0429 28.871 55.5316C29.9279 56.4249 31.0659 57.2175 32.2702 57.8991L32.024 58.3343M39.9973 60.7318C39.9967 60.7318 39.9961 60.7318 39.9955 60.7318L39.9987 61.2318V60.7318C39.9982 60.7318 39.9978 60.7318 39.9973 60.7318ZM32.024 58.3343C30.7925 57.6373 29.6288 56.8268 28.5481 55.9133L32.8512 59.1461C32.6521 58.8071 32.3666 58.527 32.024 58.3343ZM65.0419 68.3037V68.8956C64.8699 68.7854 64.7033 68.681 64.5419 68.5824L65.0419 68.3037ZM73.3189 48.7465C73.2575 48.9566 73.1931 49.1657 73.1257 49.3738C73.0528 49.2554 72.978 49.138 72.9013 49.0216L73.3189 48.7465ZM25.2924 59.6776L25.2927 59.6779C26.1984 60.4443 27.1528 61.151 28.1498 61.7937V68.7619C28.1498 71.0133 30.7306 72.2774 32.5369 70.9559C34.5782 69.4647 36.3043 68.3007 37.605 67.4905C38.2557 67.0851 38.7961 66.7707 39.2138 66.5488C39.5626 66.3634 39.7986 66.2578 39.9337 66.2101C41.5693 66.4641 43.2376 66.591 44.9219 66.591C60.2342 66.591 72.9092 55.9549 72.9092 42.4923C72.9092 29.0267 60.2313 18.3906 44.9219 18.3906C29.6125 18.3906 16.9375 29.0267 16.9375 42.4894C16.9375 49.0748 20.0081 55.199 25.2924 59.6776ZM46.5 92.5C21.0936 92.5 0.5 71.9064 0.5 46.5C0.5 21.0936 21.0936 0.5 46.5 0.5C71.9064 0.5 92.5 21.0936 92.5 46.5C92.5 71.9064 71.9064 92.5 46.5 92.5ZM33.2068 47.4447C35.4687 47.4447 37.3106 45.6274 37.3106 43.3816C37.3106 41.1327 35.4684 39.3185 33.2068 39.3185C30.9452 39.3185 29.1031 41.1327 29.1031 43.3816C29.1031 45.6305 30.9452 47.4447 33.2068 47.4447ZM44.9219 47.4447C47.1838 47.4447 49.0257 45.6274 49.0257 43.3816C49.0257 41.1327 47.1835 39.3185 44.9219 39.3185C42.6603 39.3185 40.8182 41.1327 40.8182 43.3816C40.8182 45.6305 42.6603 47.4447 44.9219 47.4447ZM56.637 47.4447C58.8989 47.4447 60.7407 45.6274 60.7407 43.3816C60.7407 41.1327 58.8986 39.3185 56.637 39.3185C54.3754 39.3185 52.5332 41.1327 52.5332 43.3816C52.5332 45.6305 54.3754 47.4447 56.637 47.4447Z" fill="#D57315" stroke="#CE6500"/>
<g clip-path="url(#clip0_40_321)">
<g filter="url(#filter0_d_40_321)">
<path d="M50.034 15.5H48.4045C29.9557 15.5 15 30.4749 15 48.9474C15 67.4198 29.9557 82.3947 48.4045 82.3947H50.034C68.4828 82.3947 83.4385 67.4198 83.4385 48.9474C83.4385 30.4749 68.4828 15.5 50.034 15.5Z" fill="white"/>
<path fill-rule="evenodd" clip-rule="evenodd" d="M47.5897 95.4474C20.5901 95.4474 -1.29492 73.5343 -1.29492 46.5C-1.29492 19.4657 20.5901 -2.44737 47.5897 -2.44737C74.5893 -2.44737 96.4743 19.4657 96.4743 46.5C96.4743 73.5343 74.5893 95.4474 47.5897 95.4474ZM48.4452 68.9088C51.586 71.0838 55.5701 72.3778 59.8842 72.3778C60.9565 72.3778 62.0168 72.2984 63.0586 72.1424C63.4161 72.2892 63.7614 72.4697 64.186 72.7144C65.1026 73.2528 66.3278 74.0788 67.8524 75.1923C69.102 76.107 70.871 75.223 70.871 73.6842V69.2147C71.5127 68.7986 72.1175 68.3488 72.6888 67.8624C76.1414 64.9318 78.1426 60.9241 78.1426 56.6259C78.1426 53.7963 77.2871 51.15 75.7839 48.8648C75.31 50.4876 74.668 52.0563 73.8683 53.5453C74.186 54.5334 74.354 55.5644 74.354 56.6259C74.354 59.7892 72.863 62.775 70.2233 65.0143C69.5421 65.5905 68.8087 66.1016 68.0326 66.5408C67.7451 66.7035 67.5058 66.9394 67.3388 67.2248C67.1719 67.5102 67.0834 67.8347 67.0824 68.1654V70.0742C65.2706 68.9117 64.0271 68.3641 63.0799 68.3641C62.9735 68.3645 62.8673 68.3738 62.7622 68.3917C60.1077 68.8362 57.3865 68.6581 54.8124 67.8717C52.7275 68.4137 50.5971 68.7619 48.4483 68.9119L48.4452 68.9088ZM25.6345 59.9697C26.6418 60.8233 27.7077 61.6053 28.824 62.31V69.9336C28.824 71.8608 31.0392 72.9621 32.6005 71.818C36.9084 68.667 39.9026 66.8866 40.6512 66.7092C42.3804 66.9845 44.1464 67.1222 45.9307 67.1222C61.8182 67.1222 74.8275 56.0876 74.8275 42.2814C74.8275 28.472 61.8151 17.4375 45.9307 17.4375C30.0461 17.4375 17.0368 28.472 17.0368 42.2783C17.0368 49.0392 20.1838 55.3441 25.6345 59.9697ZM40.755 62.0072C39.2182 62.0072 36.9726 63.0932 33.5629 65.3846V60.9884C33.5614 60.5747 33.4503 60.1686 33.2409 59.8117C33.0317 59.4549 32.7315 59.1599 32.3713 58.9571C31.0766 58.2235 29.8532 57.3704 28.7171 56.4087C24.2779 52.6489 21.7724 47.6198 21.7724 42.2783C21.7724 31.2346 32.5148 22.1242 45.9307 22.1242C59.3495 22.1242 70.0888 31.2346 70.0888 42.2783C70.0888 53.3221 59.3495 62.4355 45.9307 62.4355C44.3113 62.4355 42.7135 62.3009 41.1522 62.0377C41.0209 62.0165 40.8881 62.0062 40.755 62.0072ZM33.6147 46.9681C35.7076 46.9681 37.4034 45.2855 37.4034 43.2174C37.4034 41.1463 35.7076 39.4669 33.6147 39.4669C31.522 39.4669 29.8262 41.1463 29.8262 43.2174C29.8262 45.2886 31.522 46.9681 33.6147 46.9681ZM45.9307 46.9681C48.0235 46.9681 49.7193 45.2855 49.7193 43.2174C49.7193 41.1463 48.0235 39.4669 45.9307 39.4669C43.8378 39.4669 42.1422 41.1463 42.1422 43.2174C42.1422 45.2886 43.8378 46.9681 45.9307 46.9681ZM58.2465 46.9681C60.3394 46.9681 62.0351 45.2855 62.0351 43.2174C62.0351 41.1463 60.3394 39.4669 58.2465 39.4669C56.1536 39.4669 54.458 41.1463 54.458 43.2174C54.458 45.2886 56.1536 46.9681 58.2465 46.9681Z" fill="#D57315"/>
</g>
</g>
<defs>
<filter id="filter0_d_40_321" x="-5.29492" y="-2.44737" width="105.769" height="105.895" filterUnits="userSpaceOnUse" color-interpolation-filters="sRGB">
<feFlood flood-opacity="0" result="BackgroundImageFix"/>
<feColorMatrix in="SourceAlpha" type="matrix" values="0 0 0 0 0 0 0 0 0 0 0 0 0 0 0 0 0 0 127 0" result="hardAlpha"/>
<feOffset dy="4"/>
<feGaussianBlur stdDeviation="2"/>
<feComposite in2="hardAlpha" operator="out"/>
<feColorMatrix type="matrix" values="0 0 0 0 0 0 0 0 0 0 0 0 0 0 0 0 0 0 0.25 0"/>
<feBlend mode="normal" in2="BackgroundImageFix" result="effect1_dropShadow_40_321"/>
<feBlend mode="normal" in="SourceGraphic" in2="effect1_dropShadow_40_321" result="shape"/>
</filter>
<clipPath id="clip0_40_321">
<rect width="63.55" height="62" fill="white" transform="translate(15 15.5)"/>
</clipPath>
</defs>
</svg>
