<svg width="28" height="29" viewBox="0 0 28 29" fill="none" xmlns="http://www.w3.org/2000/svg">
<path fill-rule="evenodd" clip-rule="evenodd" d="M8.22818 0.584C9.72109 0.515273 10.1971 0.5 14 0.5C17.8029 0.5 18.2789 0.516545 19.7705 0.584C21.2622 0.651455 22.2804 0.889455 23.1713 1.23436C24.1042 1.58691 24.9505 2.138 25.6505 2.85073C26.3633 3.54945 26.9131 4.39455 27.2644 5.32873C27.6105 6.21964 27.8473 7.23782 27.916 8.72691C27.9847 10.2224 28 10.6984 28 14.5C28 18.3029 27.9835 18.7789 27.916 20.2718C27.8485 21.7609 27.6105 22.7791 27.2644 23.67C26.9131 24.6043 26.3624 25.4508 25.6505 26.1505C24.9505 26.8633 24.1042 27.4131 23.1713 27.7644C22.2804 28.1105 21.2622 28.3473 19.7731 28.416C18.2789 28.4847 17.8029 28.5 14 28.5C10.1971 28.5 9.72109 28.4835 8.22818 28.416C6.73909 28.3485 5.72091 28.1105 4.83 27.7644C3.89572 27.413 3.04923 26.8623 2.34945 26.1505C1.63721 25.4514 1.08604 24.6053 0.734364 23.6713C0.389455 22.7804 0.152727 21.7622 0.084 20.2731C0.0152727 18.7776 0 18.3016 0 14.5C0 10.6971 0.0165454 10.2211 0.084 8.72945C0.151455 7.23782 0.389455 6.21964 0.734364 5.32873C1.08656 4.39465 1.63815 3.54858 2.35073 2.84945C3.04951 2.13737 3.89515 1.5862 4.82873 1.23436C5.71964 0.889455 6.73782 0.652727 8.22691 0.584H8.22818ZM19.6573 3.104C18.1809 3.03655 17.738 3.02255 14 3.02255C10.262 3.02255 9.81909 3.03655 8.34273 3.104C6.97709 3.16636 6.23636 3.39418 5.74255 3.58636C5.08964 3.84091 4.62255 4.14255 4.13255 4.63255C3.66806 5.08443 3.31059 5.63454 3.08636 6.24255C2.89418 6.73636 2.66636 7.47709 2.604 8.84273C2.53655 10.3191 2.52255 10.762 2.52255 14.5C2.52255 18.238 2.53655 18.6809 2.604 20.1573C2.66636 21.5229 2.89418 22.2636 3.08636 22.7575C3.31036 23.3645 3.668 23.9156 4.13255 24.3675C4.58436 24.832 5.13545 25.1896 5.74255 25.4136C6.23636 25.6058 6.97709 25.8336 8.34273 25.896C9.81909 25.9635 10.2607 25.9775 14 25.9775C17.7393 25.9775 18.1809 25.9635 19.6573 25.896C21.0229 25.8336 21.7636 25.6058 22.2575 25.4136C22.9104 25.1591 23.3775 24.8575 23.8675 24.3675C24.332 23.9156 24.6896 23.3645 24.9136 22.7575C25.1058 22.2636 25.3336 21.5229 25.396 20.1573C25.4635 18.6809 25.4775 18.238 25.4775 14.5C25.4775 10.762 25.4635 10.3191 25.396 8.84273C25.3336 7.47709 25.1058 6.73636 24.9136 6.24255C24.6591 5.58964 24.3575 5.12255 23.8675 4.63255C23.4155 4.16809 22.8654 3.81063 22.2575 3.58636C21.7636 3.39418 21.0229 3.16636 19.6573 3.104ZM12.2118 18.8158C13.2105 19.2315 14.3225 19.2876 15.3579 18.9746C16.3933 18.6615 17.288 17.9986 17.889 17.0992C18.49 16.1998 18.7601 15.1197 18.6532 14.0432C18.5462 12.9668 18.0689 11.9609 17.3027 11.1973C16.8143 10.7092 16.2237 10.3354 15.5735 10.1029C14.9233 9.87043 14.2296 9.785 13.5424 9.85278C12.8553 9.92056 12.1916 10.1399 11.5994 10.4949C11.0071 10.8499 10.5009 11.3319 10.1173 11.906C9.73364 12.4801 9.48206 13.1322 9.38066 13.8152C9.27925 14.4983 9.33056 15.1953 9.53087 15.8561C9.73118 16.5169 10.0755 17.1251 10.5391 17.6369C11.0027 18.1487 11.574 18.5513 12.2118 18.8158ZM8.91164 9.41164C9.57985 8.74342 10.3731 8.21337 11.2462 7.85173C12.1193 7.4901 13.055 7.30397 14 7.30397C14.945 7.30397 15.8807 7.4901 16.7538 7.85173C17.6269 8.21337 18.4202 8.74342 19.0884 9.41164C19.7566 10.0798 20.2866 10.8731 20.6483 11.7462C21.0099 12.6193 21.196 13.555 21.196 14.5C21.196 15.445 21.0099 16.3807 20.6483 17.2538C20.2866 18.1269 19.7566 18.9202 19.0884 19.5884C17.7388 20.9379 15.9085 21.696 14 21.696C12.0915 21.696 10.2612 20.9379 8.91164 19.5884C7.56212 18.2388 6.80397 16.4085 6.80397 14.5C6.80397 12.5915 7.56212 10.7612 8.91164 9.41164ZM22.792 8.37564C22.9576 8.21943 23.0902 8.03159 23.1818 7.82324C23.2735 7.61489 23.3225 7.39025 23.3258 7.16264C23.3291 6.93503 23.2867 6.70906 23.2012 6.49812C23.1156 6.28718 22.9886 6.09556 22.8276 5.9346C22.6666 5.77363 22.475 5.6466 22.2641 5.56102C22.0531 5.47544 21.8272 5.43306 21.5995 5.43638C21.3719 5.4397 21.1473 5.48865 20.9389 5.58034C20.7306 5.67203 20.5427 5.80459 20.3865 5.97018C20.0828 6.29222 19.9164 6.71997 19.9229 7.16264C19.9293 7.6053 20.1081 8.02803 20.4211 8.34107C20.7342 8.65412 21.1569 8.83284 21.5995 8.83929C22.0422 8.84574 22.47 8.67942 22.792 8.37564Z" fill="#D57315"/>
</svg>
