<svg width="25" height="25" viewBox="0 0 25 25" fill="none" xmlns="http://www.w3.org/2000/svg">
<path fill-rule="evenodd" clip-rule="evenodd" d="M7.55273 0.572C8.83236 0.513091 9.24036 0.5 12.5 0.5C15.7596 0.5 16.1676 0.514182 17.4462 0.572C18.7247 0.629818 19.5975 0.833818 20.3611 1.12945C21.1607 1.43164 21.8862 1.904 22.4862 2.51491C23.0971 3.11382 23.5684 3.83818 23.8695 4.63891C24.1662 5.40255 24.3691 6.27527 24.428 7.55164C24.4869 8.83346 24.5 9.24145 24.5 12.5C24.5 15.7596 24.4858 16.1676 24.428 17.4473C24.3702 18.7236 24.1662 19.5964 23.8695 20.36C23.5684 21.1608 23.0963 21.8864 22.4862 22.4862C21.8862 23.0971 21.1607 23.5684 20.3611 23.8695C19.5975 24.1662 18.7247 24.3691 17.4484 24.428C16.1676 24.4869 15.7596 24.5 12.5 24.5C9.24036 24.5 8.83236 24.4858 7.55273 24.428C6.27636 24.3702 5.40364 24.1662 4.64 23.8695C3.83919 23.5683 3.11362 23.0963 2.51382 22.4862C1.90332 21.8869 1.43089 21.1617 1.12945 20.3611C0.833818 19.5975 0.630909 18.7247 0.572 17.4484C0.513091 16.1665 0.5 15.7585 0.5 12.5C0.5 9.24036 0.514182 8.83236 0.572 7.55382C0.629818 6.27527 0.833818 5.40255 1.12945 4.63891C1.43133 3.83827 1.90413 3.11307 2.51491 2.51382C3.11386 1.90346 3.8387 1.43103 4.63891 1.12945C5.40255 0.833818 6.27527 0.630909 7.55164 0.572H7.55273ZM17.3491 2.732C16.0836 2.67418 15.704 2.66218 12.5 2.66218C9.296 2.66218 8.91636 2.67418 7.65091 2.732C6.48036 2.78545 5.84545 2.98073 5.42218 3.14545C4.86255 3.36364 4.46218 3.62218 4.04218 4.04218C3.64405 4.42951 3.33765 4.90104 3.14545 5.42218C2.98073 5.84545 2.78545 6.48036 2.732 7.65091C2.67418 8.91636 2.66218 9.296 2.66218 12.5C2.66218 15.704 2.67418 16.0836 2.732 17.3491C2.78545 18.5196 2.98073 19.1545 3.14545 19.5778C3.33745 20.0982 3.644 20.5705 4.04218 20.9578C4.42945 21.356 4.90182 21.6625 5.42218 21.8545C5.84545 22.0193 6.48036 22.2145 7.65091 22.268C8.91636 22.3258 9.29491 22.3378 12.5 22.3378C15.7051 22.3378 16.0836 22.3258 17.3491 22.268C18.5196 22.2145 19.1545 22.0193 19.5778 21.8545C20.1375 21.6364 20.5378 21.3778 20.9578 20.9578C21.356 20.5705 21.6625 20.0982 21.8545 19.5778C22.0193 19.1545 22.2145 18.5196 22.268 17.3491C22.3258 16.0836 22.3378 15.704 22.3378 12.5C22.3378 9.296 22.3258 8.91636 22.268 7.65091C22.2145 6.48036 22.0193 5.84545 21.8545 5.42218C21.6364 4.86255 21.3778 4.46218 20.9578 4.04218C20.5705 3.64408 20.0989 3.33768 19.5778 3.14545C19.1545 2.98073 18.5196 2.78545 17.3491 2.732ZM10.9673 16.1993C11.8233 16.5556 12.7764 16.6037 13.6639 16.3353C14.5514 16.067 15.3182 15.4988 15.8334 14.7279C16.3485 13.957 16.5801 13.0311 16.4884 12.1085C16.3968 11.1858 15.9876 10.3236 15.3309 9.66909C14.9123 9.2507 14.406 8.93034 13.8487 8.73107C13.2914 8.5318 12.6968 8.45858 12.1078 8.51667C11.5188 8.57477 10.95 8.76274 10.4423 9.06705C9.93468 9.37136 9.50081 9.78445 9.17197 10.2766C8.84312 10.7687 8.62748 11.3276 8.54056 11.913C8.45365 12.4985 8.49762 13.096 8.66932 13.6624C8.84101 14.2288 9.13616 14.7501 9.53351 15.1888C9.93087 15.6275 10.4205 15.9726 10.9673 16.1993ZM8.13855 8.13855C8.7113 7.56579 9.39126 7.11146 10.1396 6.80149C10.8879 6.49151 11.69 6.33197 12.5 6.33197C13.31 6.33197 14.1121 6.49151 14.8604 6.80149C15.6087 7.11146 16.2887 7.56579 16.8615 8.13855C17.4342 8.7113 17.8885 9.39126 18.1985 10.1396C18.5085 10.8879 18.668 11.69 18.668 12.5C18.668 13.31 18.5085 14.1121 18.1985 14.8604C17.8885 15.6087 17.4342 16.2887 16.8615 16.8615C15.7047 18.0182 14.1359 18.668 12.5 18.668C10.8641 18.668 9.29527 18.0182 8.13855 16.8615C6.98182 15.7047 6.33197 14.1359 6.33197 12.5C6.33197 10.8641 6.98182 9.29527 8.13855 8.13855ZM20.036 7.25055C20.1779 7.11666 20.2916 6.95565 20.3701 6.77706C20.4487 6.59847 20.4907 6.40593 20.4935 6.21083C20.4964 6.01574 20.4601 5.82205 20.3867 5.64125C20.3134 5.46044 20.2045 5.29619 20.0665 5.15822C19.9285 5.02026 19.7643 4.91137 19.5835 4.83802C19.4027 4.76467 19.209 4.72834 19.0139 4.73118C18.8188 4.73403 18.6263 4.77599 18.4477 4.85458C18.2691 4.93317 18.1081 5.0468 17.9742 5.18873C17.7138 5.46476 17.5712 5.83141 17.5768 6.21083C17.5823 6.59026 17.7355 6.9526 18.0038 7.22092C18.2721 7.48924 18.6345 7.64243 19.0139 7.64796C19.3933 7.65349 19.76 7.51093 20.036 7.25055Z" fill="#D8CDBA"/>
</svg>
