<svg width="28" height="29" viewBox="0 0 28 29" fill="none" xmlns="http://www.w3.org/2000/svg">
<path d="M24.8889 0.5C25.714 0.5 26.5053 0.827777 27.0888 1.41122C27.6722 1.99467 28 2.78599 28 3.61111V25.3889C28 26.214 27.6722 27.0053 27.0888 27.5888C26.5053 28.1722 25.714 28.5 24.8889 28.5H3.11111C2.28599 28.5 1.49467 28.1722 0.911223 27.5888C0.327777 27.0053 0 26.214 0 25.3889V3.61111C0 2.78599 0.327777 1.99467 0.911223 1.41122C1.49467 0.827777 2.28599 0.5 3.11111 0.5H24.8889ZM24.1111 24.6111V16.3667C24.1111 15.0217 23.5768 13.7319 22.6258 12.7808C21.6748 11.8298 20.3849 11.2956 19.04 11.2956C17.7178 11.2956 16.1778 12.1044 15.4311 13.3178V11.5911H11.0911V24.6111H15.4311V16.9422C15.4311 15.7444 16.3956 14.7644 17.5933 14.7644C18.1709 14.7644 18.7248 14.9939 19.1333 15.4023C19.5417 15.8107 19.7711 16.3646 19.7711 16.9422V24.6111H24.1111ZM6.03556 9.14889C6.72865 9.14889 7.39337 8.87356 7.88346 8.38346C8.37356 7.89337 8.64889 7.22865 8.64889 6.53556C8.64889 5.08889 7.48222 3.90667 6.03556 3.90667C5.33833 3.90667 4.66966 4.18364 4.17665 4.67665C3.68364 5.16966 3.40667 5.83833 3.40667 6.53556C3.40667 7.98222 4.58889 9.14889 6.03556 9.14889M8.19778 24.6111V11.5911H3.88889V24.6111H8.19778V24.6111Z" fill="#D57315"/>
</svg>
