<svg width="171" height="32" viewBox="0 0 171 32" fill="none" xmlns="http://www.w3.org/2000/svg">
<path d="M0 30.7793C0.657783 29.2153 1.24509 27.8137 1.84023 26.4148C5.38755 18.0864 8.94271 9.76074 12.4665 1.42456C12.7406 0.774855 13.0565 0.442142 13.7952 0.507637C14.5182 0.570512 15.2595 0.4631 15.9773 0.549553C16.288 0.58623 16.7134 0.856069 16.8309 1.12853C20.1642 8.88835 23.4661 16.6613 26.7733 24.4342C27.6451 26.4855 28.5196 28.5368 29.4436 30.7034C29.1382 30.7374 28.9163 30.7846 28.6919 30.7846C27.3084 30.7924 25.9224 30.7662 24.5389 30.8003C24.0065 30.8134 23.7637 30.5986 23.5836 30.1218C22.9624 28.4896 22.2863 26.8758 21.6651 25.2437C21.5032 24.8167 21.2814 24.6385 20.8167 24.6412C16.7604 24.6543 12.7041 24.6543 8.64775 24.6412C8.18835 24.6412 7.95604 24.8167 7.79159 25.249C7.14947 26.9256 6.47864 28.5918 5.78953 30.2501C5.70339 30.4597 5.45803 30.7479 5.28053 30.7531C3.58648 30.7924 1.88982 30.7767 0 30.7767L0 30.7793ZM14.8288 8.18887C14.7583 8.20721 14.6879 8.22554 14.6148 8.24388C14.573 8.32772 14.526 8.41155 14.4895 8.498C13.0147 12.1919 11.5425 15.8858 10.0703 19.5823C9.73884 20.4128 9.78843 20.4888 10.689 20.4888C13.3593 20.494 16.0295 20.4914 18.6998 20.4888C19.6473 20.4888 19.7204 20.3604 19.3707 19.4828C18.1386 16.3993 16.917 13.3079 15.685 10.2244C15.4109 9.54068 15.116 8.86477 14.8288 8.18625V8.18887Z" fill="#D8CDBA"/>
<path d="M136.025 28.0969C135.887 28.2174 135.736 28.3248 135.61 28.4584C133.17 31.0048 130.139 31.8432 126.759 31.2982C122.59 30.6276 119.427 28.3903 117.545 24.568C114.653 18.6944 117.153 11.6996 123.126 8.73659C129.492 5.57974 137.15 8.33838 140.04 14.8302C140.734 16.389 141.001 18.0395 141.008 19.7292C141.027 23.1376 141.003 26.5459 141.027 29.9517C141.032 30.5752 140.86 30.8267 140.204 30.7979C139.163 30.7533 138.114 30.7559 137.072 30.7979C136.443 30.8241 136.182 30.6276 136.229 29.9726C136.273 29.3622 136.239 28.7466 136.239 28.1335C136.169 28.1204 136.098 28.1073 136.028 28.0942L136.025 28.0969ZM136.164 19.4201C136.156 15.3516 132.783 11.9485 128.758 11.9511C124.715 11.9511 121.309 15.4066 121.327 19.4882C121.345 23.5227 124.765 26.973 128.756 26.9782C132.776 26.9834 136.172 23.5201 136.164 19.4201Z" fill="#D8CDBA"/>
<path d="M69.7432 28.1231C68.5007 28.9876 67.4931 29.9098 66.3159 30.4704C62.8991 32.0999 59.4692 31.6991 56.2482 29.9307C52.0196 27.6122 49.733 23.9445 49.8975 19.0926C50.0697 13.9893 52.7635 10.3766 57.4124 8.4039C62.7581 6.13516 68.733 7.85898 72.1994 12.4751C73.7865 14.5892 74.4938 17.0125 74.5121 19.6349C74.5356 23.0905 74.5095 26.5486 74.5304 30.0041C74.533 30.6066 74.3372 30.8215 73.7342 30.8005C72.6171 30.7638 71.4999 30.7769 70.3827 30.7953C69.9102 30.8031 69.7275 30.6145 69.7406 30.1482C69.7614 29.4801 69.7458 28.8095 69.7458 28.1257L69.7432 28.1231ZM69.6675 19.4542C69.6701 15.3725 66.3342 11.9747 62.3014 11.9485C58.2685 11.9197 54.8413 15.3621 54.8308 19.4489C54.8204 23.5044 58.279 26.9913 62.2935 26.9756C66.2846 26.9599 69.6623 23.5149 69.6675 19.4542Z" fill="#D8CDBA"/>
<path d="M100.045 23.7009C100.045 25.7941 100.025 27.8873 100.059 29.9805C100.069 30.6302 99.8523 30.8267 99.2207 30.8031C98.08 30.7586 96.9367 30.7638 95.796 30.8031C95.2191 30.8215 95.0469 30.6276 95.0521 30.0513C95.073 26.2054 95.0677 22.3596 95.0599 18.5163C95.0547 15.9463 93.9949 13.95 91.7345 12.6873C88.4142 10.8325 84.0107 12.7502 83.0789 16.4572C82.8857 17.2274 82.7865 18.0395 82.7813 18.8333C82.75 22.4827 82.7683 26.1347 82.7683 29.7867C82.7683 30.4591 82.422 30.7953 81.7294 30.7953C80.6592 30.7953 79.5916 30.7743 78.524 30.8031C78.0046 30.8189 77.7905 30.6722 77.7931 30.1115C77.8166 26.119 77.7566 22.129 77.8323 18.1364C77.9289 13.0619 81.7372 8.7052 86.6941 7.68348C92.1652 6.55697 97.8555 9.71906 99.5704 15.3621C99.9176 16.5043 99.9724 17.754 100.03 18.9591C100.106 20.5362 100.048 22.1212 100.048 23.7035L100.045 23.7009Z" fill="#D8CDBA"/>
<path d="M38.0157 23.0904C38.4437 22.1237 38.8823 21.1623 39.3025 20.1929C40.9548 16.3864 42.6149 12.5824 44.2411 8.7654C44.4604 8.25454 44.7449 8.06591 45.28 8.07639C46.5433 8.09997 47.8067 8.08163 49.0701 8.08687C49.2789 8.08687 49.4877 8.12093 49.8558 8.15237C49.3781 9.21338 48.9526 10.1748 48.5141 11.1311C45.6324 17.4212 42.7428 23.7061 39.8794 30.0014C39.6105 30.5909 39.2608 30.7245 38.6343 30.8267C36.7393 31.1358 35.9353 30.2818 35.1966 28.5972C32.3488 22.0818 29.3131 15.6502 26.3479 9.18457C26.2095 8.88329 26.0868 8.57153 25.9146 8.16547C26.2226 8.12879 26.4262 8.08687 26.6298 8.08425C27.9166 8.07901 29.2035 8.09473 30.4929 8.07377C30.9889 8.06591 31.2786 8.21786 31.49 8.713C33.4007 13.1745 35.3402 17.6255 37.277 22.0766C37.431 22.4329 37.6163 22.776 37.7886 23.1245C37.8643 23.1114 37.94 23.1009 38.0183 23.0878L38.0157 23.0904Z" fill="#D8CDBA"/>
<path d="M103.246 11.2332C103.246 7.97155 103.261 4.70991 103.233 1.44827C103.228 0.764505 103.418 0.478948 104.139 0.510385C105.253 0.557541 106.373 0.541823 107.49 0.515625C108.059 0.502526 108.268 0.730448 108.265 1.28846C108.25 3.26117 108.281 5.23125 108.25 7.20395C108.239 7.86676 108.451 8.1104 109.127 8.09468C110.753 8.05801 112.382 8.10254 114.01 8.07372C114.613 8.06324 114.835 8.28331 114.812 8.88324C114.778 9.78183 114.77 10.6857 114.814 11.5842C114.846 12.2156 114.645 12.4462 113.995 12.4331C112.343 12.3964 110.69 12.4278 109.038 12.4173C108.592 12.4147 108.26 12.4986 108.268 13.0382C108.304 15.8362 108.229 18.6393 108.404 21.4294C108.573 24.1488 110.688 26.297 113.368 26.8079C114.327 26.9912 114.807 27.5737 114.807 28.5553C114.807 29.2862 114.786 30.0171 114.812 30.7454C114.83 31.251 114.629 31.4213 114.131 31.4318C109.863 31.534 105.566 28.6286 104.071 24.636C103.517 23.1585 103.248 21.6416 103.248 20.0697C103.251 17.1251 103.248 14.1778 103.248 11.2332H103.246Z" fill="#D8CDBA"/>
<path d="M144.676 30.6015C144.396 30.6015 144.242 30.2714 144.423 30.0566C147.189 26.7216 149.57 23.7298 152.162 20.8585C153.253 19.6482 153.123 18.8596 152.099 17.7095C149.533 14.8225 147.137 11.8412 144.407 8.55861C144.227 8.34379 144.381 8.0137 144.66 8.0137C147.338 8.00846 149.651 7.9744 151.958 8.05823C152.402 8.07395 152.906 8.60839 153.227 8.98564C155.824 12.0325 158.356 15.1133 160.972 18.1497C161.671 18.9618 161.708 19.6063 160.998 20.4341C158.387 23.4731 155.882 26.5671 153.263 29.6034C152.885 30.0435 152.144 30.5282 151.538 30.557C149.408 30.6592 147.265 30.612 144.676 30.6042V30.6015Z" fill="#D57315"/>
<path d="M163.553 17.4239C162.812 16.596 162.3 16.0773 161.856 15.5219C158.706 11.5922 158.813 13.1589 161.88 9.1794C162.611 8.23366 163.472 7.99002 164.832 7.99002C166.646 7.99002 168.408 7.97954 170.666 7.97168C170.948 7.97168 171.105 8.30177 170.924 8.51922C168.382 11.5922 166.051 14.4085 163.556 17.4239H163.553Z" fill="#D57315"/>
<path d="M170.919 30.0538C171.102 30.2713 170.948 30.6014 170.666 30.604C168.04 30.6197 165.887 30.7035 163.764 30.5359C163.005 30.4756 162.149 29.7368 161.663 29.1395C158.795 25.5975 158.815 26.952 161.601 23.4179C162.117 22.7603 162.71 22.1394 163.501 21.2356C165.968 24.1698 168.288 26.931 170.917 30.0564L170.919 30.0538Z" fill="#D57315"/>
</svg>
