<svg width="150" height="28" viewBox="0 0 150 28" fill="none" xmlns="http://www.w3.org/2000/svg">
<path d="M0 26.8725C0.575002 25.5103 1.0884 24.2896 1.60864 23.0711C4.70954 15.8174 7.81729 8.56599 10.8977 1.30545C11.1372 0.739571 11.4133 0.449788 12.0591 0.506832C12.6911 0.561594 13.3391 0.468043 13.9666 0.54334C14.2381 0.575285 14.6101 0.810306 14.7128 1.04761C17.6266 7.80617 20.513 14.5761 23.404 21.3461C24.1661 23.1327 24.9304 24.9193 25.7382 26.8063C25.4712 26.836 25.2773 26.8771 25.081 26.8771C23.8717 26.8839 22.6601 26.8611 21.4508 26.8908C20.9853 26.9022 20.7731 26.7151 20.6157 26.2998C20.0726 24.8783 19.4816 23.4727 18.9386 22.0512C18.7971 21.6792 18.6031 21.5241 18.197 21.5264C14.6511 21.5378 11.1053 21.5378 7.55945 21.5264C7.15786 21.5264 6.95479 21.6792 6.81104 22.0557C6.24973 23.516 5.66331 24.9672 5.06093 26.4116C4.98563 26.5941 4.77115 26.8451 4.61599 26.8497C3.13513 26.8839 1.65199 26.8702 0 26.8702L0 26.8725ZM12.9626 7.19694C12.901 7.21291 12.8394 7.22888 12.7755 7.24485C12.739 7.31787 12.698 7.39089 12.666 7.46618C11.3768 10.6835 10.0899 13.9007 8.80301 17.1203C8.51323 17.8436 8.55658 17.9098 9.34378 17.9098C11.678 17.9143 14.0123 17.9121 16.3465 17.9098C17.1748 17.9098 17.2387 17.798 16.9329 17.0336C15.8559 14.348 14.788 11.6555 13.7111 8.96986C13.4715 8.37432 13.2136 7.78563 12.9626 7.19465V7.19694Z" fill="#5A599C"/>
<path d="M118.907 24.536C118.786 24.641 118.653 24.7345 118.544 24.8509C116.411 27.0688 113.761 27.7989 110.807 27.3243C107.163 26.7402 104.397 24.7916 102.752 21.4625C100.224 16.3468 102.41 10.2545 107.63 7.67385C113.196 4.92433 119.89 7.32702 122.416 12.9812C123.023 14.3389 123.256 15.7764 123.263 17.2481C123.279 20.2167 123.258 23.1852 123.279 26.1515C123.283 26.6946 123.133 26.9136 122.56 26.8885C121.649 26.8497 120.732 26.852 119.822 26.8885C119.272 26.9113 119.044 26.7402 119.085 26.1697C119.124 25.6381 119.094 25.1019 119.094 24.568C119.032 24.5565 118.971 24.5451 118.909 24.5337L118.907 24.536ZM119.028 16.9788C119.021 13.4353 116.073 10.4713 112.554 10.4736C109.02 10.4736 106.042 13.4832 106.058 17.0382C106.074 20.5521 109.063 23.5571 112.552 23.5617C116.066 23.5663 119.035 20.5498 119.028 16.9788Z" fill="#5A599C"/>
<path d="M60.9661 24.5588C59.88 25.3118 58.9993 26.115 57.9702 26.6033C54.9834 28.0225 51.9852 27.6734 49.1695 26.1332C45.473 24.1139 43.4742 20.9194 43.618 16.6936C43.7686 12.2488 46.1233 9.10223 50.1871 7.38407C54.8602 5.40807 60.0831 6.90947 63.1133 10.9299C64.5006 12.7713 65.1189 14.8819 65.1349 17.166C65.1554 20.1756 65.1326 23.1875 65.1509 26.1971C65.1532 26.7219 64.982 26.909 64.455 26.8908C63.4784 26.8588 62.5018 26.8703 61.5252 26.8862C61.1122 26.8931 60.9525 26.7288 60.9639 26.3226C60.9821 25.7408 60.9684 25.1567 60.9684 24.5611L60.9661 24.5588ZM60.9 17.0085C60.9023 13.4535 57.9862 10.4941 54.4609 10.4713C50.9356 10.4462 47.9396 13.4444 47.9305 17.0039C47.9214 20.5361 50.9447 23.5731 54.454 23.5594C57.9428 23.5457 60.8954 20.5452 60.9 17.0085Z" fill="#5A599C"/>
<path d="M87.4551 20.7072C87.4551 22.5304 87.4368 24.3535 87.4665 26.1766C87.4756 26.7425 87.2862 26.9136 86.734 26.8931C85.7369 26.8543 84.7375 26.8588 83.7404 26.8931C83.2361 26.909 83.0855 26.7402 83.0901 26.2382C83.1083 22.8886 83.1038 19.539 83.0969 16.1916C83.0924 13.9532 82.166 12.2145 80.19 11.1147C77.2876 9.49926 73.4383 11.1695 72.6237 14.3982C72.4548 15.069 72.3681 15.7764 72.3636 16.4677C72.3362 19.6462 72.3521 22.827 72.3521 26.0077C72.3521 26.5934 72.0494 26.8862 71.444 26.8862C70.5085 26.8862 69.5753 26.868 68.642 26.8931C68.1879 26.9068 68.0008 26.779 68.0031 26.2907C68.0237 22.8133 67.9712 19.3382 68.0374 15.8608C68.1218 11.441 71.4509 7.64647 75.7839 6.75659C80.5665 5.77543 85.5407 8.52951 87.0398 13.4444C87.3433 14.4393 87.3912 15.5277 87.4414 16.5773C87.5076 17.9509 87.4574 19.3313 87.4574 20.7095L87.4551 20.7072Z" fill="#5A599C"/>
<path d="M33.2314 20.1756C33.6056 19.3336 33.989 18.4962 34.3563 17.652C35.8007 14.3366 37.2519 11.0235 38.6734 7.69895C38.8651 7.254 39.1138 7.08972 39.5815 7.09885C40.6859 7.11938 41.7903 7.10341 42.8946 7.10797C43.0772 7.10797 43.2597 7.13764 43.5814 7.16502C43.1639 8.08913 42.792 8.92653 42.4086 9.75937C39.8896 15.2379 37.3637 20.7118 34.8606 26.1948C34.6256 26.7082 34.3198 26.8246 33.7722 26.9136C32.1156 27.1828 31.4129 26.439 30.7671 24.9718C28.2777 19.2971 25.624 13.6954 23.032 8.06403C22.911 7.80163 22.8038 7.5301 22.6532 7.17643C22.9224 7.14448 23.1004 7.10797 23.2784 7.10569C24.4033 7.10113 25.5282 7.11482 26.6554 7.09656C27.0889 7.08972 27.3422 7.22206 27.527 7.65331C29.1973 11.5391 30.8926 15.4158 32.5857 19.2925C32.7203 19.6029 32.8823 19.9018 33.0329 20.2052C33.0991 20.1938 33.1652 20.1847 33.2337 20.1733L33.2314 20.1756Z" fill="#5A599C"/>
<path d="M90.2525 9.84833C90.2525 7.00754 90.2662 4.16676 90.2411 1.32598C90.2365 0.730438 90.4031 0.481727 91.0328 0.509108C92.0071 0.55018 92.986 0.536489 93.9626 0.513672C94.46 0.502263 94.6426 0.700776 94.6403 1.18679C94.6266 2.90495 94.654 4.62083 94.6266 6.33899C94.6175 6.91627 94.8023 7.12848 95.3933 7.11479C96.8148 7.08284 98.2386 7.12163 99.6624 7.09653C100.19 7.08741 100.383 7.27907 100.363 7.8016C100.333 8.58424 100.326 9.37144 100.365 10.1541C100.393 10.704 100.217 10.9048 99.6487 10.8934C98.2044 10.8614 96.76 10.8888 95.3157 10.8797C94.9255 10.8774 94.6357 10.9504 94.6426 11.4205C94.6745 13.8574 94.6083 16.2988 94.7612 18.7289C94.9095 21.0974 96.7578 22.9684 99.1011 23.4134C99.9393 23.5731 100.358 24.0804 100.358 24.9353C100.358 25.5719 100.34 26.2085 100.363 26.8428C100.379 27.2832 100.203 27.4315 99.7674 27.4407C96.0367 27.5296 92.281 24.9992 90.9735 21.5218C90.4898 20.2349 90.2547 18.9137 90.2547 17.5447C90.257 14.98 90.2547 12.413 90.2547 9.84833H90.2525Z" fill="#5A599C"/>
<path d="M126.469 26.7174C126.224 26.7174 126.09 26.4299 126.247 26.2428C128.666 23.3381 130.747 20.7323 133.013 18.2315C133.966 17.1774 133.852 16.4906 132.958 15.4889C130.715 12.9744 128.62 10.3777 126.234 7.51871C126.076 7.3316 126.211 7.0441 126.455 7.0441C128.796 7.03954 130.818 7.00988 132.835 7.08289C133.223 7.09658 133.663 7.56206 133.944 7.89063C136.214 10.5443 138.427 13.2277 140.714 15.8722C141.325 16.5796 141.357 17.1409 140.736 17.8619C138.455 20.5087 136.264 23.2035 133.976 25.848C133.645 26.2314 132.997 26.6535 132.467 26.6786C130.605 26.7676 128.732 26.7265 126.469 26.7197V26.7174Z" fill="#D57315"/>
<path d="M142.97 15.2401C142.322 14.5191 141.875 14.0673 141.487 13.5836C138.733 10.161 138.827 11.5254 141.508 8.05946C142.147 7.23574 142.9 7.02354 144.088 7.02354C145.674 7.02354 147.214 7.01441 149.188 7.00757C149.434 7.00757 149.571 7.29507 149.414 7.48446C147.192 10.161 145.154 12.6138 142.973 15.2401H142.97Z" fill="#D57315"/>
<path d="M149.409 26.2404C149.569 26.4298 149.434 26.7173 149.188 26.7196C146.893 26.7333 145.01 26.8063 143.155 26.6603C142.491 26.6078 141.743 25.9644 141.318 25.4441C138.811 22.3592 138.829 23.5388 141.263 20.4608C141.715 19.888 142.233 19.3473 142.925 18.5601C145.081 21.1156 147.109 23.5206 149.407 26.2427L149.409 26.2404Z" fill="#D57315"/>
</svg>
