<svg width="63" height="63" viewBox="0 0 63 63" fill="none" xmlns="http://www.w3.org/2000/svg">
<path d="M44.1653 6.11502C49.1375 9.92607 52.3531 15.9106 52.3531 22.6693C52.3531 26.9865 51.0728 30.9464 48.8695 34.2513C45.6539 39.0152 40.5626 42.3796 34.6376 43.243C33.6253 43.4216 32.5832 43.511 31.5114 43.511C30.4395 43.511 29.3974 43.4216 28.3851 43.243C22.4601 42.3796 17.3688 39.0152 14.1532 34.2513C11.95 30.9464 10.6697 26.9865 10.6697 22.6693C10.6697 11.1468 19.9889 1.82758 31.5114 1.82758" stroke="#D57315" stroke-width="3" stroke-linecap="round" stroke-linejoin="round"/>
<path d="M58.9122 51.1801L54.0245 52.3361C52.9284 52.6029 52.0694 53.433 51.8324 54.5297L50.7956 58.8872C50.2328 61.2586 47.2113 61.9701 45.6413 60.1026L31.5113 43.8584L17.3813 60.1322C15.8113 61.9997 12.7897 61.2882 12.2269 58.9168L11.1901 54.5593C10.9235 53.4625 10.0645 52.6029 8.99805 52.3658L4.11032 51.2098C1.859 50.6762 1.05919 47.8601 2.68843 46.2297L14.2413 34.6691C17.4405 39.4119 22.506 42.7616 28.4009 43.6213C29.4081 43.7991 30.4448 43.888 31.5113 43.888C32.5777 43.888 33.6145 43.7991 34.6216 43.6213C40.5165 42.7616 45.582 39.4119 48.7813 34.6691L60.3341 46.2297C61.9633 47.8304 61.1635 50.6465 58.9122 51.1801Z" stroke="#D57315" stroke-width="3" stroke-linecap="round" stroke-linejoin="round"/>
<path d="M33.1021 14.5632L34.7784 17.9244C35.0057 18.3802 35.6023 18.8359 36.1421 18.9214L39.1821 19.4341C41.1141 19.7474 41.5686 21.1717 40.1765 22.5675L37.8184 24.9317C37.4206 25.3305 37.1933 26.0997 37.3354 26.6694L38.0173 29.6033C38.5571 31.9106 37.3354 32.8221 35.2898 31.5973L32.4487 29.9166C31.9373 29.6033 31.0849 29.6033 30.5735 29.9166L27.7324 31.5973C25.6868 32.7936 24.4651 31.9106 25.0049 29.6033L25.6868 26.6694C25.8004 26.1282 25.6016 25.3305 25.2038 24.9317L22.8457 22.5675C21.4535 21.1717 21.9081 19.7759 23.8401 19.4341L26.8801 18.9214C27.3915 18.8359 27.9881 18.3802 28.2154 17.9244L29.8917 14.5632C30.7156 12.7401 32.193 12.7401 33.1021 14.5632Z" stroke="#D57315" stroke-width="3" stroke-linecap="round" stroke-linejoin="round"/>
</svg>
