<svg width="16" height="16" viewBox="0 0 16 16" fill="none" xmlns="http://www.w3.org/2000/svg">
<g clip-path="url(#clip0_51_300)">
<path fill-rule="evenodd" clip-rule="evenodd" d="M15.7211 1.62581C16.093 1.25389 16.093 0.650874 15.7211 0.278946C15.3491 -0.0929821 14.7462 -0.0929821 14.3742 0.278946L8.19051 6.46265L2.00679 0.278946C1.63487 -0.0929821 1.03185 -0.0929821 0.659928 0.278946C0.287999 0.650874 0.287999 1.25389 0.659928 1.62581L6.84363 7.80952L0.659928 13.9932C0.287999 14.3652 0.287999 14.9682 0.659928 15.3401C1.03185 15.712 1.63487 15.712 2.00679 15.3401L8.19051 9.15642L14.3742 15.3401C14.7462 15.712 15.3491 15.712 15.7211 15.3401C16.093 14.9682 16.093 14.3652 15.7211 13.9932L9.5374 7.80952L15.7211 1.62581Z" fill="#212121"/>
</g>
<defs>
<clipPath id="clip0_51_300">
<rect width="16" height="16" fill="white"/>
</clipPath>
</defs>
</svg>
