<svg width="31" height="18" viewBox="0 0 31 18" fill="none" xmlns="http://www.w3.org/2000/svg">
<path fill-rule="evenodd" clip-rule="evenodd" d="M0.143066 1.17391C0.143066 0.525579 0.674421 0 1.32988 0H29.8134C30.4689 0 31.0002 0.525579 31.0002 1.17391C31.0002 1.82225 30.4689 2.34783 29.8134 2.34783H1.32988C0.674421 2.34783 0.143066 1.82225 0.143066 1.17391ZM0.143066 9C0.143066 8.35167 0.674421 7.82609 1.32988 7.82609H29.8134C30.4689 7.82609 31.0002 8.35167 31.0002 9C31.0002 9.64833 30.4689 10.1739 29.8134 10.1739H1.32988C0.674421 10.1739 0.143066 9.64833 0.143066 9ZM1.32988 15.6522C0.674421 15.6522 0.143066 16.1778 0.143066 16.8261C0.143066 17.4744 0.674421 18 1.32988 18H29.8134C30.4689 18 31.0002 17.4744 31.0002 16.8261C31.0002 16.1778 30.4689 15.6522 29.8134 15.6522H1.32988Z" fill="#212121"/>
</svg>
