<svg width="70" height="70" viewBox="0 0 70 70" fill="none" xmlns="http://www.w3.org/2000/svg">
<path d="M27.7084 40.1042C27.7084 42.9333 29.8959 45.2083 32.5792 45.2083H38.0625C40.3958 45.2083 42.2917 43.225 42.2917 40.7458C42.2917 38.0917 41.1251 37.1292 39.4042 36.5167L30.625 33.4542C28.9042 32.8417 27.7376 31.9083 27.7376 29.225C27.7376 26.775 29.6333 24.7625 31.9667 24.7625H37.45C40.1334 24.7625 42.3209 27.0375 42.3209 29.8667" stroke="#1E8231" stroke-width="3" stroke-linecap="round" stroke-linejoin="round"/>
<path d="M35 21.875V48.125" stroke="#1E8231" stroke-width="3" stroke-linecap="round" stroke-linejoin="round"/>
<path d="M49.5834 8.75V20.4167H61.25" stroke="#1E8231" stroke-width="3" stroke-linecap="round" stroke-linejoin="round"/>
<path d="M64.1667 5.83334L49.5834 20.4167" stroke="#1E8231" stroke-width="3" stroke-linecap="round" stroke-linejoin="round"/>
<path d="M35 5.83334C18.9 5.83334 5.83337 18.9 5.83337 35C5.83337 46.4917 12.4834 56.4375 22.1667 61.1917" stroke="#1E8231" stroke-width="3" stroke-linecap="round" stroke-linejoin="round"/>
<path d="M64.1667 35C64.1667 51.1 51.1 64.1667 35 64.1667" stroke="#1E8231" stroke-width="3" stroke-linecap="round" stroke-linejoin="round"/>
</svg>
