<svg width="28" height="23" viewBox="0 0 28 23" fill="none" xmlns="http://www.w3.org/2000/svg">
<path d="M28 2.80016C26.9694 3.26861 25.8585 3.57645 24.7075 3.72367C25.8853 3.0143 26.7954 1.89002 27.2237 0.538205C26.1128 1.20742 24.8815 1.67587 23.5832 1.94356C22.5258 0.792507 21.0402 0.123291 19.3537 0.123291C16.2084 0.123291 13.6386 2.69308 13.6386 5.86516C13.6386 6.32023 13.6922 6.76191 13.7859 7.17683C9.02103 6.93591 4.7782 4.64719 1.95411 1.18065C1.45889 2.02386 1.17782 3.0143 1.17782 4.05828C1.17782 6.05255 2.18164 7.81928 3.73423 8.8231C2.78394 8.8231 1.90057 8.55541 1.12428 8.15388V8.19404C1.12428 10.978 3.10516 13.3068 5.72849 13.8288C4.88625 14.0593 4.00204 14.0914 3.14532 13.9225C3.50884 15.0635 4.2208 16.0619 5.18109 16.7773C6.14139 17.4927 7.30175 17.8892 8.49904 17.9111C6.46949 19.5178 3.95372 20.3862 1.3652 20.3738C0.910134 20.3738 0.455067 20.347 0 20.2935C2.54302 21.9263 5.56788 22.8766 8.80688 22.8766C19.3537 22.8766 25.1491 14.1233 25.1491 6.53438C25.1491 6.28008 25.1491 6.03916 25.1358 5.78486C26.26 4.9818 27.2237 3.96459 28 2.80016Z" fill="#D57315"/>
</svg>
