<svg width="25" height="21" viewBox="0 0 25 21" fill="none" xmlns="http://www.w3.org/2000/svg">
<path d="M24.5 3.04299C23.6166 3.44452 22.6644 3.70838 21.6778 3.83458C22.6874 3.22655 23.4675 2.26288 23.8346 1.10418C22.8824 1.67779 21.827 2.07932 20.7141 2.30876C19.8078 1.32215 18.5344 0.748535 17.0889 0.748535C14.3929 0.748535 12.1902 2.95121 12.1902 5.67014C12.1902 6.0602 12.2361 6.43878 12.3164 6.79443C8.23231 6.58792 4.5956 4.62616 2.17495 1.65484C1.75048 2.3776 1.50956 3.22655 1.50956 4.12138C1.50956 5.83075 2.36998 7.34509 3.70077 8.20551C2.88623 8.20551 2.12906 7.97607 1.46367 7.6319V7.66632C1.46367 10.0526 3.16157 12.0487 5.41013 12.4961C4.68822 12.6937 3.93032 12.7212 3.19599 12.5765C3.50758 13.5544 4.11782 14.4102 4.94094 15.0234C5.76405 15.6366 6.75864 15.9765 7.7849 15.9952C6.04527 17.3724 3.88891 18.1168 1.67017 18.1061C1.28011 18.1061 0.890057 18.0831 0.5 18.0373C2.67973 19.4369 5.27247 20.2514 8.04876 20.2514C17.0889 20.2514 22.0564 12.7485 22.0564 6.24376C22.0564 6.02578 22.0564 5.81928 22.0449 5.60131C23.0086 4.91297 23.8346 4.04108 24.5 3.04299Z" fill="#D8CDBA"/>
</svg>
