<svg width="184" height="184" viewBox="0 0 184 184" fill="none" xmlns="http://www.w3.org/2000/svg">
<path fill-rule="evenodd" clip-rule="evenodd" d="M71.8367 26.7184L85.4145 15.117C89.0562 12.0616 95.1806 12.145 98.5514 15.0697L112.124 26.6673L112.185 26.718C114.213 28.4078 116.8 29.7121 119.219 30.593C121.639 31.4743 124.485 32.1481 127.179 32.1481H141.743C147.275 32.1481 151.852 36.7248 151.852 42.2573V56.8213C151.852 59.5218 152.529 62.353 153.415 64.7596C154.302 67.1695 155.607 69.7198 157.282 71.7296L168.871 85.2928L168.883 85.3072C171.938 88.9489 171.855 95.0735 168.93 98.4445L168.899 98.4814L157.333 112.017L157.282 112.078C155.607 114.088 154.302 116.638 153.415 119.048C152.529 121.454 151.852 124.285 151.852 126.986V141.55C151.852 147.082 147.275 151.659 141.743 151.659H127.179C124.478 151.659 121.647 152.336 119.24 153.222C116.831 154.109 114.28 155.414 112.27 157.089L98.7071 168.678L98.6928 168.69C95.0511 171.746 88.9264 171.663 85.5555 168.738L85.5185 168.706L71.9828 157.14L71.922 157.089C69.896 155.401 67.3119 154.098 64.9095 153.218C62.5119 152.34 59.6802 151.659 57.0141 151.659H42.1073C36.5748 151.659 31.9981 147.082 31.9981 141.55V126.9C31.9981 124.279 31.3591 121.471 30.4994 119.063C29.6492 116.683 28.3569 114.06 26.6019 112.017L15.0705 98.4353L15.0616 98.4246C12.1135 94.9051 12.1137 88.8155 15.0621 85.2964L15.0705 85.2863L19.849 79.6547C22.1449 76.9488 21.8125 72.8941 19.1067 70.5983C16.4008 68.3024 12.3461 68.6347 10.0502 71.3406L5.25262 76.9948L5.23355 77.0175C-1.74447 85.319 -1.74454 98.4027 5.23348 106.704L16.8195 120.35L16.851 120.387C17.2288 120.825 17.8583 121.876 18.3974 123.386C18.9298 124.876 19.1475 126.18 19.1475 126.9V141.55C19.1475 154.18 29.4776 164.51 42.1073 164.51H57.0141C57.6892 164.51 58.9697 164.728 60.4914 165.285C61.9878 165.833 63.1199 166.49 63.6726 166.943L77.1338 178.444L77.1536 178.461C85.4308 185.625 98.6418 185.54 106.989 178.504L120.521 166.942C121.089 166.476 122.212 165.822 123.68 165.281C125.171 164.732 126.452 164.51 127.179 164.51H141.743C154.372 164.51 164.703 154.18 164.703 141.55V126.986C164.703 126.26 164.925 124.978 165.474 123.487C166.015 122.019 166.669 120.896 167.135 120.328L178.637 106.866L178.654 106.846C185.817 98.5692 185.732 85.3582 178.697 77.0109L167.135 63.4796C166.669 62.9116 166.015 61.7883 165.474 60.3201C164.925 58.8288 164.703 57.5477 164.703 56.8213V42.2573C164.703 29.6275 154.372 19.2974 141.743 19.2974H127.179C126.445 19.2974 125.136 19.0717 123.616 18.518C122.115 17.9716 120.986 17.3163 120.435 16.8648L106.953 5.34557C98.6758 -1.8173 85.4651 -1.73227 77.1179 5.30323L63.5865 16.8649C63.0185 17.3308 61.8952 17.9854 60.4272 18.5258C58.9358 19.0748 57.6548 19.2974 56.9284 19.2974H42.1073C29.4776 19.2974 19.1475 29.6275 19.1475 42.2573C19.1475 45.8059 22.0242 48.6826 25.5728 48.6826C29.1214 48.6826 31.9981 45.8059 31.9981 42.2573C31.9981 36.7248 36.5748 32.1481 42.1073 32.1481H56.9284C59.6289 32.1481 62.46 31.4712 64.8667 30.5852C67.2765 29.6981 69.8268 28.3932 71.8367 26.7184ZM127.614 75.7528C130.121 73.241 130.117 69.1727 127.605 66.666C125.093 64.1594 121.025 64.1636 118.518 66.6754L81.692 103.578L65.5934 87.4125C63.0893 84.8981 59.021 84.8897 56.5066 87.3937C53.9922 89.8977 53.9838 93.966 56.4878 96.4805L77.1345 117.213C78.3394 118.423 79.9764 119.103 81.684 119.104C83.3915 119.105 85.0292 118.426 86.2354 117.218L127.614 75.7528Z" fill="white" fill-opacity="0.1"/>
</svg>
